<?xml version="1.0" encoding="UTF-8"?>
<svg width="96px" height="95px" viewBox="0 0 96 95" version="1.1" xmlns="http://www.w3.org/2000/svg" xmlns:xlink="http://www.w3.org/1999/xlink">
    <!-- Generator: Sketch 48.1 (47250) - http://www.bohemiancoding.com/sketch -->
    <title>contact</title>
    <desc>Created with Sketch.</desc>
    <defs></defs>
    <g id="Page-1" stroke="none" stroke-width="1" fill="none" fill-rule="evenodd">
        <path d="M48.1751442,95 C21.9416186,95 0.675144213,73.7335256 0.675144213,47.5 C0.675144213,21.2664744 21.9416186,0 48.1751442,0 C74.4086698,0 95.6751442,21.2664744 95.6751442,47.5 C95.6751442,73.7335256 74.4086698,95 48.1751442,95 Z M17.3301189,39.3971036 C16.2713013,40.5748477 15.643152,42.0768335 15.548279,43.6577114 L15.0013131,52.7719812 C14.9770179,53.176814 15.0144312,53.5829873 15.1122696,53.9765701 C15.6452071,56.120462 17.8152061,57.4263987 19.9590981,56.8934612 L31.5075121,54.0227089 C32.701216,53.7259731 33.5928395,52.7306342 33.756961,51.5115996 L34.3282942,47.2679446 C34.4438652,46.4095249 34.9248165,45.6429491 35.6474398,45.1653962 C38.1534998,43.5092327 42.246524,42.6811509 47.9265124,42.6811509 C53.6261612,42.6811509 57.7820315,43.5149752 60.3941233,45.1826237 C61.1381197,45.6576164 61.6351763,46.4361556 61.7529528,47.3109569 L62.3193013,51.5176757 C62.483014,52.733674 63.370705,53.7274185 64.5606025,54.0267475 L75.8821045,56.8747697 C76.2790528,56.9746255 76.6889763,57.0129629 77.0975568,56.9884429 C79.3027283,56.8561043 80.9830915,54.961178 80.8507529,52.7560064 L80.2664861,43.0203052 C80.1942314,41.8163169 79.8121014,40.6514255 79.1571547,39.6385814 C75.0019718,33.2128605 65.0168621,30 49.2018255,30 C33.5861545,30 22.9622523,33.1323679 17.3301189,39.3971036 Z" id="contact" fill="#0171BB" transform="translate(48.175144, 47.500000) rotate(-135.000000) translate(-48.175144, -47.500000) "></path>
    </g>
</svg>