<?xml version="1.0" encoding="UTF-8"?>
<svg width="95px" height="95px" viewBox="0 0 95 95" version="1.1" xmlns="http://www.w3.org/2000/svg" xmlns:xlink="http://www.w3.org/1999/xlink">
    <!-- Generator: Sketch 48.1 (47250) - http://www.bohemiancoding.com/sketch -->
    <title>edu</title>
    <desc>Created with Sketch.</desc>
    <defs></defs>
    <g id="Page-1" stroke="none" stroke-width="1" fill="none" fill-rule="evenodd">
        <path d="M74.8879163,39.2766543 L81.0453972,36.1564066 C81.2575305,36.0489099 81.42441,35.8693312 81.5160877,35.6498973 C81.7289933,35.1402997 81.488477,34.5545952 80.9788795,34.3416896 L50.1550608,21.4637524 C48.6769811,20.8462229 47.0133363,20.8453858 45.5346359,21.4614277 L14.6156438,34.3425987 C14.3957982,34.4341887 14.2158588,34.6012346 14.1082058,34.8136766 C13.8585634,35.3063196 14.0555543,35.9080608 14.5481973,36.1577032 L40.1112201,49.1115336 C44.9416855,51.5593283 50.6493503,51.5593283 55.4798157,49.1115336 L72.8879163,40.2901362 L72.8879163,51.6424475 L72.0931436,51.6424475 L70.8000892,74.5559684 L77.3547945,74.5559684 L75.8212191,51.6424475 L74.8879163,51.6424475 L74.8879163,39.2766543 Z M47.5,95 C21.2664744,95 0,73.7335256 0,47.5 C0,21.2664744 21.2664744,0 47.5,0 C73.7335256,0 95,21.2664744 95,47.5 C95,73.7335256 73.7335256,95 47.5,95 Z M30.7199203,48.1365948 C30.208885,47.886555 29.6965776,48.4948695 29.6063062,48.7931715 C27.7411967,54.9564252 27.0666423,57.7013592 27.0666423,65.7205114 C27.0666423,65.8236107 27.1427426,66.1234408 27.20212,66.2077248 C31.2528563,71.9575997 38.9902938,74.4186936 49.1875658,74.4186936 C58.1679462,74.4186936 64.7858761,71.7536785 68.3504098,66.1894745 C68.401982,66.1089708 68.4606894,65.8161175 68.4606894,65.7205114 C68.4606894,60.4006801 67.992651,56.098385 66.2863899,48.7931715 C66.2044686,48.4424325 65.4650503,47.9733602 65.1248642,48.1634794 C55.7948471,53.377729 53.5947451,54.9564252 48.4544104,54.9564252 C43.3140756,54.9564252 41.3598782,53.903499 30.7199203,48.1365948 Z" id="edu" fill="#0171BB"></path>
    </g>
</svg>