<?xml version="1.0" encoding="UTF-8"?>
<svg width="95px" height="95px" viewBox="0 0 95 95" version="1.1" xmlns="http://www.w3.org/2000/svg" xmlns:xlink="http://www.w3.org/1999/xlink">
    <!-- Generator: Sketch 48.1 (47250) - http://www.bohemiancoding.com/sketch -->
    <title>exp</title>
    <desc>Created with Sketch.</desc>
    <defs></defs>
    <g id="Page-1" stroke="none" stroke-width="1" fill="none" fill-rule="evenodd">
        <path d="M56,49.8596961 C62.3875867,48.7191939 68.7191009,46.1750085 75,42.2212273 L75,34 C75,32.3431458 73.6568542,31 72,31 L59,31 L59,26 C59,24.3431458 57.6568542,23 56,23 L40,23 C38.3431458,23 37,24.3431458 37,26 L37,31 L24,31 C22.3431458,31 21,32.3431458 21,34 L21,42.5719079 C27.7770369,46.4684825 34.4425451,48.935799 41,49.9800617 L41,49.5 C41,47.0147186 43.0147186,45 45.5,45 L51.5,45 C53.9852814,45 56,47.0147186 56,49.5 L56,49.8596961 Z M56,51.8900545 L56,52.5 C56,54.9852814 53.9852814,57 51.5,57 L45.5,57 C43.0147186,57 41,54.9852814 41,52.5 L41,52.0043245 C34.4158713,50.9991892 27.7481577,48.6189797 21,44.8693024 L21,69 C21,70.6568542 22.3431458,72 24,72 L72,72 C73.6568542,72 75,70.6568542 75,69 L75,44.571072 C68.7383078,48.3551029 62.4033543,50.796519 56,51.8900545 Z M55,31 L41,31 L41,27 L55,27 L55,31 Z M47.5,95 C21.2664744,95 0,73.7335256 0,47.5 C0,21.2664744 21.2664744,0 47.5,0 C73.7335256,0 95,21.2664744 95,47.5 C95,73.7335256 73.7335256,95 47.5,95 Z M45.5,48 C44.6715729,48 44,48.6715729 44,49.5 L44,52.5 C44,53.3284271 44.6715729,54 45.5,54 L51.5,54 C52.3284271,54 53,53.3284271 53,52.5 L53,49.5 C53,48.6715729 52.3284271,48 51.5,48 L45.5,48 Z" id="exp" fill="#0171BB"></path>
    </g>
</svg>