<?xml version="1.0" encoding="UTF-8"?>
<svg width="95px" height="95px" viewBox="0 0 95 95" version="1.1" xmlns="http://www.w3.org/2000/svg" xmlns:xlink="http://www.w3.org/1999/xlink">
    <!-- Generator: Sketch 48.1 (47250) - http://www.bohemiancoding.com/sketch -->
    <title>honor</title>
    <desc>Created with Sketch.</desc>
    <defs></defs>
    <g id="Page-1" stroke="none" stroke-width="1" fill="none" fill-rule="evenodd">
        <path d="M44.3774433,66.1066596 L44.3774433,68.6964668 L37.0119365,68.6964668 L32,77.8059519 L62.2759035,77.8059519 L57.2722688,68.6964668 L50.0428528,68.6964668 L50.0428528,66.2072806 C52.2030504,65.5152185 54.0224496,63.9585437 55.5901397,61.6540863 C59.1422127,61.1300875 63.781795,59.4999112 68.1603713,53.8024446 C71.0582538,50.031678 72.7912245,45.4621452 74.4510731,35.6102316 C74.6505984,34.4259634 73.9820865,33 72.5648343,33 L63.8850121,33 C64.3586467,30.1308112 64.8222998,27.1245104 65.2903855,24 C56.5668983,24 36.4498584,24 29,24 C29.4030128,27.1153571 29.8262716,30.1228041 30.279713,33 C27.2971661,33 24.5108681,33 21.920819,33 C20.5035668,33 19.8350549,34.4259634 20.0345801,35.6102316 C21.6944287,45.4621452 23.4273995,50.031678 26.325282,53.8024446 C30.7362961,59.5421197 35.4121978,61.154018 38.9742784,61.6655512 C40.5418466,63.8530674 42.3263745,65.370596 44.3774433,66.1066596 Z M36.6711207,57.6686836 C33.1374864,56.3867961 31.3137404,54.2469336 29.5859912,51.6650173 C26.896007,47.6451551 25.683283,40.7383336 25.683283,35.6102316 C27.0454467,35.6102316 28.7196135,35.6102316 30.7057833,35.6102316 C32.2348379,44.6482114 34.1113152,52.2527778 36.6711207,57.6686836 Z M57.7451886,57.6936505 C60.1373988,52.3091815 61.8682297,44.7265672 63.4443413,35.6102316 L68.8023703,35.6102316 C68.8023703,40.7383336 67.5896462,47.6451551 64.8996621,51.6650173 C63.1606467,54.2637695 61.3243785,56.4146842 57.7451886,57.6936505 Z M47.5,95 C21.2664744,95 0,73.7335256 0,47.5 C0,21.2664744 21.2664744,0 47.5,0 C73.7335256,0 95,21.2664744 95,47.5 C95,73.7335256 73.7335256,95 47.5,95 Z" id="honor" fill="#0171BB"></path>
    </g>
</svg>