<?xml version="1.0" encoding="UTF-8"?>
<svg width="95px" height="95px" viewBox="0 0 95 95" version="1.1" xmlns="http://www.w3.org/2000/svg" xmlns:xlink="http://www.w3.org/1999/xlink">
    <!-- Generator: Sketch 48.1 (47250) - http://www.bohemiancoding.com/sketch -->
    <title>idea</title>
    <desc>Created with Sketch.</desc>
    <defs></defs>
    <g id="Page-1" stroke="none" stroke-width="1" fill="none" fill-rule="evenodd">
        <path d="M36.1623162,59.8028656 C36.8930983,67.3854839 40.1696151,69.6535994 47.5620929,69.6535994 C54.9873264,69.6535994 58.2600429,67.4147111 58.971434,59.7205648 C65.5743971,55.6254148 70,48.102505 70,39.5 C70,26.5213084 59.9264069,16 47.5,16 C35.0735931,16 25,26.5213084 25,39.5 C25,48.1604609 29.4854352,55.7267309 36.1623162,59.8028656 Z M47.5,95 C21.2664744,95 0,73.7335256 0,47.5 C0,21.2664744 21.2664744,0 47.5,0 C73.7335256,0 95,21.2664744 95,47.5 C95,73.7335256 73.7335256,95 47.5,95 Z M40.5,73 C38.0147186,73 36,75.0147186 36,77.5 C36,79.9852814 38.0147186,82 40.5,82 L54.5,82 C56.9852814,82 59,79.9852814 59,77.5 C59,75.0147186 56.9852814,73 54.5,73 L40.5,73 Z" id="idea" fill="#0171BB"></path>
    </g>
</svg>