<?xml version="1.0" encoding="UTF-8"?>
<svg width="95px" height="95px" viewBox="0 0 95 95" version="1.1" xmlns="http://www.w3.org/2000/svg" xmlns:xlink="http://www.w3.org/1999/xlink">
    <!-- Generator: Sketch 48.1 (47250) - http://www.bohemiancoding.com/sketch -->
    <title>skill</title>
    <desc>Created with Sketch.</desc>
    <defs></defs>
    <g id="Page-1" stroke="none" stroke-width="1" fill="none" fill-rule="evenodd">
        <path d="M71.5709892,54.4997217 C72.454953,53.5978705 73,52.3625865 73,51 L73,25 C73,22.2385763 70.7614237,20 68,20 L26,20 C23.2385763,20 21,22.2385763 21,25 L21,51 C21,52.2798316 21.480852,53.4473542 22.2717481,54.3317598 L16,68 L77.765667,68 L71.5709892,54.4997217 Z M47.5,95 C21.2664744,95 0,73.7335256 0,47.5 C0,21.2664744 21.2664744,0 47.5,0 C73.7335256,0 95,21.2664744 95,47.5 C95,73.7335256 73.7335256,95 47.5,95 Z M26,24 L68,24 C68.5522847,24 69,24.4477153 69,25 L69,51 C69,51.5522847 68.5522847,52 68,52 L26,52 C25.4477153,52 25,51.5522847 25,51 L25,25 C25,24.4477153 25.4477153,24 26,24 Z M14.5,68.5 L79.5076919,68.5 L14.5,68.5 Z M16,69 L16,72 C16,73.1045695 16.8954305,74 18,74 L76,74 C77.1045695,74 78,73.1045695 78,72 L78,69 L16,69 Z M40.7610749,64 L52.7610749,64 L55.5221498,68 L38,68 L40.7610749,64 Z M44,58 L44,56 L50,56 L50,58 L44,58 Z M43,62 L43,60 L51,60 L51,62 L43,62 Z M53,62 L53,60 L58,60 L58,62 L53,62 Z M52,58 L52,56 L57,56 L57,58 L52,58 Z M30,58 L30,56 L35,56 L35,58 L30,58 Z M28,62 L28,60 L34,60 L34,62 L28,62 Z M60,62 L60,60 L66,60 L66,62 L60,62 Z M59,58 L59,56 L64,56 L64,58 L59,58 Z M37,58 L37,56 L42,56 L42,58 L37,58 Z M36,62 L36,60 L41,60 L41,62 L36,62 Z" id="skill" fill="#0171BB"></path>
    </g>
</svg>